<?xml version="1.0" encoding="UTF-8"?>
<svg width="45px" height="45px" viewBox="0 0 45 45" version="1.1" xmlns="http://www.w3.org/2000/svg" xmlns:xlink="http://www.w3.org/1999/xlink">
    <!-- Generator: Sketch 53.2 (72643) - https://sketchapp.com -->
    <title>Budicon-Outline/Arrows/chevron-left-circle</title>
    <desc>Created with Sketch.</desc>
    <g id="Page-1" stroke="none" stroke-width="1" fill="none" fill-rule="evenodd">
        <g id="PWS---Home--Desktop-Copy" transform="translate(-97.000000, -1370.000000)" fill="#0067C6" fill-rule="nonzero">
            <g id="Budicon-Outline/Arrows/chevron-left-circle" transform="translate(97.000000, 1370.000000)">
                <path d="M22.5,0 C10.0735931,-7.6089797e-16 1.59872116e-15,10.0735931 0,22.5 C-1.59872116e-15,34.9264069 10.0735931,45 22.5,45 C34.9264069,45 45,34.9264069 45,22.5 C45,16.532629 42.6294711,10.8096659 38.4099026,6.59009742 C34.1903341,2.37052891 28.467371,3.65396091e-16 22.5,0 Z M22.5,43.2 C11.0677057,43.2 1.8,33.9322943 1.8,22.5 C1.8,11.0677057 11.0677057,1.8 22.5,1.8 C33.9322943,1.8 43.2,11.0677057 43.2,22.5 C43.1872034,33.9269896 33.9269896,43.1872034 22.5,43.2 Z M28.35792,12.31992 L18.16992,22.5 L28.35792,32.68008 C28.6983073,33.0292347 28.6946406,33.5871964 28.349694,33.9318474 C28.0047473,34.2764984 27.4467827,34.2796866 27.09792,33.939 L16.27992,23.13 C16.1127669,22.9631317 16.0188374,22.7366388 16.0188374,22.50045 C16.0188374,22.2642612 16.1127669,22.0377683 16.27992,21.8709 L27.09792,11.06118 C27.4458992,10.7149258 28.0084416,10.7155242 28.3556833,11.0625179 C28.7029251,11.4095117 28.7039255,11.9720535 28.35792,12.32028 L28.35792,12.31992 Z" id="Shape"></path>
            </g>
        </g>
    </g>
</svg>