<?xml version="1.0" encoding="utf-8"?>
<!-- Generator: Adobe Illustrator 25.3.0, SVG Export Plug-In . SVG Version: 6.00 Build 0)  -->
<svg version="1.1" id="Symbol" xmlns="http://www.w3.org/2000/svg" xmlns:xlink="http://www.w3.org/1999/xlink" x="0px" y="0px"
	 viewBox="0 0 92.6 97.8" style="enable-background:new 0 0 92.6 97.8;" xml:space="preserve">
<style type="text/css">
	.st0{fill:#FAFAFA;}
</style>
<g>
	<g>
		<g>
			<g>
				<path class="st0" d="M14.2,32.8C14.2,12.9,28.7,0,46.7,0c16.5,0,30.1,10.1,31.7,27.1H61.7c-1.4-9.3-8-12.7-15-12.7
					c-8.1,0-15.9,6.3-15.9,18.5s7.8,18.5,15.9,18.5c7,0,13.4-4.1,15-13.4h16.7c-2.3,17-15.2,27.7-31.7,27.7
					C28.7,65.7,14.2,52.8,14.2,32.8z"/>
				<path class="st0" d="M46.3,88c8.4,0,15.7,4,19.5,9.8h26.8c-7.8-17.9-25.5-28.2-46.4-28.2C25.9,69.7,8.3,80.2,0,97.8h26.8
					C30.6,92,37.9,88,46.3,88z"/>
			</g>
		</g>
	</g>
</g>
</svg>
