<svg id="Layer_1" data-name="Layer 1" xmlns="http://www.w3.org/2000/svg" width="160" height="150" viewBox="0 0 160 150"><g id="Layer_2" data-name="Layer 2"><g id="Budicon_2.0.1" data-name="Budicon 2.0.1"><g id="Interface"><g id="budicon-life-buoy"><path d="M80,0a75,75,0,1,0,75,75A75,75,0,0,0,80,0ZM95,45.6V7.68A69.18,69.18,0,0,1,147.32,60H109.4A33.38,33.38,0,0,0,95,45.6ZM107,75A27,27,0,1,1,80,48,27,27,0,0,1,107,75ZM71,6.66a61.69,61.69,0,0,1,18,0v36.6a32.77,32.77,0,0,0-18,0Zm-6,1V45.6h0A33.38,33.38,0,0,0,50.6,60H12.68A69.18,69.18,0,0,1,65,7.68ZM11,75a64.55,64.55,0,0,1,.66-9h36.6a32.77,32.77,0,0,0,0,18H11.66A64.55,64.55,0,0,1,11,75Zm54,29.4v37.92A69.18,69.18,0,0,1,12.68,90H50.6A33.38,33.38,0,0,0,65,104.4Zm24,38.94a61.69,61.69,0,0,1-18,0v-36.6a32.77,32.77,0,0,0,18,0Zm6-1V104.4h0A33.38,33.38,0,0,0,109.4,90h37.92A69.18,69.18,0,0,1,95,142.32ZM111.74,84a32.77,32.77,0,0,0,0-18h36.6a61.69,61.69,0,0,1,0,18Z" fill="#0056ff"/></g></g></g></g></svg>