<svg class="search-icon" version="1.1" xmlns="http://www.w3.org/2000/svg" viewBox="0 0 26.9 27.7" aria-labelledby="Search-Button-title">
<title id="Search-Button-title" stroke="none" fill="#ffffff" stroke-width="1px">Search</title><path d="M12.5,11.1067961 L11.7,11.1067961 L11.4,10.8038835 C12.4,9.69320388 13,8.17864078 13,6.5631068 C13,2.92815534 10.1,0 6.5,0 C2.9,0 0,2.92815534 0,6.5631068 C0,10.1980583 2.9,13.1262136 6.5,13.1262136 C8.1,13.1262136 9.6,12.5203883 10.7,11.5106796 L11,11.8135922 L11,12.6213592 L16,17.6699029 L17.5,16.1553398 L12.5,11.1067961 L12.5,11.1067961 Z M6.5,11.1067961 C4,11.1067961 2,9.08737864 2,6.5631068 C2,4.03883495 4,2.01941748 6.5,2.01941748 C9,2.01941748 11,4.03883495 11,6.5631068 C11,9.08737864 9,11.1067961 6.5,11.1067961 L6.5,11.1067961 Z" id="Shape" stroke="none" fill="#ffffff" stroke-width="1px"></path></svg>