<svg xmlns="http://www.w3.org/2000/svg" width="40" height="30.4" viewBox="0 0 40 30.4"><g id="Layer_2" data-name="Layer 2"><g id="Layer_1-2" data-name="Layer 1"><g id="Layer_2-2" data-name="Layer 2"><g id="Budicon_2.0.1" data-name="Budicon 2.0.1"><g id="Communication"><g id="budicon-email"><path d="M37.6,0H2.4A2.39,2.39,0,0,0,0,2.4V28a2.39,2.39,0,0,0,2.4,2.4H37.6A2.39,2.39,0,0,0,40,28V2.4A2.39,2.39,0,0,0,37.6,0Zm.8,28a.8.8,0,0,1-.8.8H2.4a.8.8,0,0,1-.8-.8V7.34l16.77,9.94a3.21,3.21,0,0,0,3.2,0L38.4,7.34Zm0-22.51L20.8,15.9a1.58,1.58,0,0,1-1.6,0L1.6,5.49V2.4a.8.8,0,0,1,.8-.8H37.6a.8.8,0,0,1,.8.8Z" fill="#0056ff"/></g></g></g></g></g></g></svg>