<svg xmlns="http://www.w3.org/2000/svg" width="25" height="21" viewBox="0 0 25 21"><g id="Layer_2" data-name="Layer 2"><g id="Layer_1-2" data-name="Layer 1"><g id="Layer_2-2" data-name="Layer 2"><g id="Budicon_2.0.1" data-name="Budicon 2.0.1"><g id="Finance"><g id="budicon-donation"><path d="M19,7V5H16a1,1,0,0,1-1-1V2a1,1,0,0,1,1-1h1V.5a.5.5,0,0,1,.5-.5.5.5,0,0,1,.5.5V1h1.5a.5.5,0,0,1,0,1H16V4h3a1,1,0,0,1,1,1V7a1,1,0,0,1-1,1H18v.5a.5.5,0,0,1-.5.5.5.5,0,0,1-.5-.5V8H15.5a.5.5,0,0,1,0-1Zm6,4.51a1.83,1.83,0,0,1-.57,1.43l-8.24,7.38a2.48,2.48,0,0,1-1.71.68,2.36,2.36,0,0,1-.75-.12L5.54,18,4,18.81V19a1,1,0,0,1-1,1H.5a.5.5,0,0,1-.5-.5A.5.5,0,0,1,.5,19H3V10H.5a.5.5,0,0,1,0-1H3a1,1,0,0,1,1,.87L7.38,9a.45.45,0,0,1,.28,0l4.9,1.63a2.1,2.1,0,0,1,.79,3.51l1.56.31,7.28-4.38a1.82,1.82,0,0,1,2.52.53A2,2,0,0,1,25,11.51Zm-1,.06a.82.82,0,0,0-.33-.61.84.84,0,0,0-1,0l-7.46,4.5a.57.57,0,0,1-.36.06l-5-1h0A.51.51,0,0,1,9.42,14a.5.5,0,0,1,.57-.43l1.67.24a1.09,1.09,0,0,0,.88-.25,1.1,1.1,0,0,0-.37-1.88L7.48,10,4,10.89v6.8l1.28-.64a.42.42,0,0,1,.38,0L14,19.93a1.5,1.5,0,0,0,1.47-.34l8.24-7.39A.85.85,0,0,0,24,11.57Z" fill="#0056ff"/></g></g></g></g></g></g></svg>