<svg xmlns="http://www.w3.org/2000/svg" width="40" height="33.6" viewBox="0 0 40 33.6"><g id="Layer_2" data-name="Layer 2"><g id="Layer_1-2" data-name="Layer 1"><g id="Layer_2-2" data-name="Layer 2"><g id="Budicon_2.0.1" data-name="Budicon 2.0.1"><g id="Finance"><g id="budicon-donation"><path d="M30.4,11.2V8H25.6A1.6,1.6,0,0,1,24,6.4V3.2a1.6,1.6,0,0,1,1.6-1.6h1.6V.8a.8.8,0,1,1,1.6,0v.8h2.4a.8.8,0,1,1,0,1.6H25.6V6.4h4.8A1.6,1.6,0,0,1,32,8v3.2a1.6,1.6,0,0,1-1.6,1.6H28.8v.8a.8.8,0,1,1-1.6,0v-.8H24.8a.8.8,0,1,1,0-1.6ZM40,18.41a3,3,0,0,1-.92,2.29L25.9,32.51a4,4,0,0,1-2.73,1.09,3.73,3.73,0,0,1-1.2-.2L8.86,28.8,6.4,30.09v.31A1.6,1.6,0,0,1,4.8,32H.8a.8.8,0,0,1,0-1.6h4V16H.8a.8.8,0,1,1,0-1.6h4a1.6,1.6,0,0,1,1.6,1.39l5.41-1.39a.66.66,0,0,1,.44,0L20.09,17a3.35,3.35,0,0,1,1.27,5.61l2.49.5,11.65-7a2.92,2.92,0,0,1,4,.85A3,3,0,0,1,40,18.41Zm-1.6.1a1.31,1.31,0,0,0-.53-1,1.35,1.35,0,0,0-1.6,0l-11.94,7.2a.87.87,0,0,1-.57.1l-8-1.6h0a.81.81,0,1,1,.22-1.6l2.67.38a1.69,1.69,0,0,0,1.41-.4,1.81,1.81,0,0,0,.61-1.32,1.77,1.77,0,0,0-1.2-1.68L12,16,6.4,17.42V28.3l2-1a.72.72,0,0,1,.61,0l13.34,4.6a2.39,2.39,0,0,0,2.35-.54L37.93,19.52A1.31,1.31,0,0,0,38.4,18.51Z" fill="#0056ff"/></g></g></g></g></g></g></svg>