<svg xmlns="http://www.w3.org/2000/svg" width="25" height="23.04" viewBox="0 0 25 23.04"><g id="Layer_2" data-name="Layer 2"><g id="Layer_1-2" data-name="Layer 1"><g id="Layer_2-2" data-name="Layer 2"><g id="Budicon_2.0.1" data-name="Budicon 2.0.1"><g id="Finance"><g id="budicon-savings"><path d="M24.2,8.83l-1.77-.36a9.61,9.61,0,0,0-.91-1.74L22,1s-3.86.39-5.7,1.76a11.85,11.85,0,0,0-1.94-.53A4.48,4.48,0,0,0,6.12,3.49a10.19,10.19,0,0,0-4.05,4L.78,6.57a.5.5,0,0,0-.56.84l1.42.94A8.47,8.47,0,0,0,1,11.49a8.9,8.9,0,0,0,3.18,6.68V21a2,2,0,0,0,2,2h.64a2,2,0,0,0,2-2,2.19,2.19,0,0,0,0-.36v-.09a12.64,12.64,0,0,0,6.63,0v.14A2,2,0,0,0,17.09,23a2.19,2.19,0,0,0,.36,0H18a2,2,0,0,0,2-2V18a9.12,9.12,0,0,0,2.77-4.56l1.43-.29a1,1,0,0,0,.8-1V9.81A1,1,0,0,0,24.2,8.83ZM20.9,2.16l-.27,3.2L20,5a11.22,11.22,0,0,0-2.62-1.78A13.48,13.48,0,0,1,20.9,2.16ZM10.5,1A3.5,3.5,0,0,1,14,4.49,2.09,2.09,0,0,1,14,5H7a4.17,4.17,0,0,1,0-.5A3.5,3.5,0,0,1,10.5,1ZM7.58,21.64a1,1,0,0,1-.76.35H6.18a1,1,0,0,1-1-1V19a12.1,12.1,0,0,0,2.53,1.3l.1.59A1,1,0,0,1,7.58,21.64ZM19,21a1,1,0,0,1-1,1h-.64a1,1,0,0,1-1-1,1,1,0,0,1,0-.17l.12-.67A11.5,11.5,0,0,0,19,18.82Zm-7-1c-5.51,0-10-3.81-10-8.5A8.14,8.14,0,0,1,6,4.71,4.65,4.65,0,0,0,6.28,6h8.44A4.25,4.25,0,0,0,15,4.49a4.81,4.81,0,0,0-.16-1.13C19,4.4,22,7.64,22,11.49,22,16.18,17.51,20,12,20Zm11-7.61a6.61,6.61,0,0,0,0-.89,7.85,7.85,0,0,0-.24-1.93L24,9.81v2.36ZM19,8.49a.5.5,0,1,1-1,0,.5.5,0,0,1,1,0Z" fill="#0056ff"/></g></g></g></g></g></g></svg>