<svg xmlns="http://www.w3.org/2000/svg" width="25" height="25" viewBox="0 0 25 25"><g id="Layer_2" data-name="Layer 2"><g id="Layer_1-2" data-name="Layer 1"><g id="Layer_2-2" data-name="Layer 2"><g id="Budicon_2.0.1" data-name="Budicon 2.0.1"><g id="eCommerce"><path d="M12.5,0A12.5,12.5,0,1,0,25,12.5,12.5,12.5,0,0,0,12.5,0Zm0,24A11.5,11.5,0,1,1,24,12.5,11.5,11.5,0,0,1,12.5,24Z" fill="#0056ff"/><path d="M9.2,11.4A2.2,2.2,0,1,0,9.2,7h0a2.2,2.2,0,1,0,0,4.4Zm0-3.3A1.1,1.1,0,1,1,8.1,9.2h0A1.1,1.1,0,0,1,9.2,8.1Zm6.6,5.5A2.2,2.2,0,1,0,18,15.8,2.19,2.19,0,0,0,15.8,13.6Zm0,3.3a1.1,1.1,0,1,1,1.1-1.1A1.1,1.1,0,0,1,15.8,16.9Zm-7.7.38L16.9,7l.83.72L8.94,18Z" fill="#0056ff"/></g></g></g></g></g></svg>