<?xml version="1.0" encoding="UTF-8"?><svg id="a" xmlns="http://www.w3.org/2000/svg" width="40" height="40" viewBox="0 0 40 40"><path d="m15.56,22.32c2.63-1.39,4.44-4.12,4.44-7.29,0-4.57-3.71-8.28-8.28-8.28S3.44,10.46,3.44,15.03c0,3.18,1.81,5.9,4.44,7.29C3.37,23.92.13,28.21.13,33.25c0,.46.37.83.83.83s.83-.37.83-.83c0-5.48,4.46-9.94,9.94-9.94s9.94,4.46,9.94,9.94c0,.46.37.83.83.83s.83-.37.83-.83c0-5.04-3.24-9.33-7.75-10.92Zm-10.47-7.29c0-3.65,2.97-6.62,6.62-6.62s6.62,2.97,6.62,6.62-2.97,6.62-6.62,6.62-6.62-2.97-6.62-6.62Zm27.56,3.1c1.85-1.18,3.08-3.23,3.08-5.58,0-3.66-2.97-6.62-6.62-6.62s-6.62,2.97-6.62,6.62c0,2.35,1.24,4.41,3.09,5.58-2.2.77-4.08,2.22-5.37,4.11.43.36.84.76,1.22,1.17,1.62-2.55,4.46-4.25,7.69-4.25,5.02,0,9.11,4.09,9.11,9.11,0,.46.37.83.83.83s.83-.37.83-.83c0-4.69-3.02-8.68-7.22-10.15Zm-3.54-.61c-2.74,0-4.97-2.23-4.97-4.97s2.23-4.97,4.97-4.97,4.97,2.23,4.97,4.97-2.23,4.97-4.97,4.97Z" fill="#0056ff"/></svg>