<?xml version="1.0" encoding="UTF-8"?><svg id="a" xmlns="http://www.w3.org/2000/svg" width="25" height="25" viewBox="0 0 25 25"><path d="m9.74,13.95c1.63-.86,2.76-2.56,2.76-4.54,0-2.85-2.31-5.15-5.15-5.15s-5.15,2.31-5.15,5.15c0,1.98,1.13,3.67,2.76,4.54C2.15,14.94.14,17.6.14,20.74c0,.28.23.52.52.52s.52-.23.52-.52c0-3.41,2.77-6.18,6.18-6.18s6.18,2.77,6.18,6.18c0,.28.23.52.52.52s.52-.23.52-.52c0-3.14-2.02-5.81-4.82-6.8Zm-6.51-4.54c0-2.27,1.85-4.12,4.12-4.12s4.12,1.85,4.12,4.12-1.85,4.12-4.12,4.12-4.12-1.85-4.12-4.12Zm17.14,1.93c1.15-.73,1.92-2.01,1.92-3.47,0-2.28-1.85-4.12-4.12-4.12s-4.12,1.84-4.12,4.12c0,1.46.77,2.74,1.92,3.47-1.37.48-2.54,1.38-3.34,2.56.27.23.52.47.76.73,1.01-1.58,2.77-2.64,4.78-2.64,3.12,0,5.67,2.54,5.67,5.67,0,.28.23.52.52.52s.52-.23.52-.52c0-2.92-1.88-5.4-4.49-6.32Zm-2.2-.38c-1.7,0-3.09-1.39-3.09-3.09s1.39-3.09,3.09-3.09,3.09,1.39,3.09,3.09-1.39,3.09-3.09,3.09Z" fill="#0056ff"/></svg>