<svg id="Layer_1" data-name="Layer 1" xmlns="http://www.w3.org/2000/svg" width="160" height="150" viewBox="0 0 160 150"><g id="Layer_2" data-name="Layer 2"><g id="Budicon_2.0.1" data-name="Budicon 2.0.1"><g id="Travel"><g id="budicon-vintage-car"><path d="M154.91,91.29,152.51,75a18,18,0,0,0-18-15.47h-12a9,9,0,0,1-6.36-2.64l-16-16.07a17.94,17.94,0,0,0-12.71-5.28H47c-18,0-36,18-36,42v18H8a3,3,0,0,0,0,6H29.29a15,15,0,0,0,29.68,0h48.57a15,15,0,0,0,29.38,0h9a9,9,0,0,0,9.08-8.9A10,10,0,0,0,154.91,91.29ZM53,41.58H87.51A12,12,0,0,1,96,45.11l14.51,14.46H53Zm-6,0v18H21.25A30.82,30.82,0,0,1,47,41.58Zm-3,66a9,9,0,1,1,9-9A9,9,0,0,1,44,107.54Zm78,0a9,9,0,1,1,9-9A9,9,0,0,1,121.93,107.54Zm26.27-13a3.1,3.1,0,0,1-2.28,1h-9a15,15,0,0,0-29.38,0H59a15,15,0,0,0-29.38,0H17v-18a40.68,40.68,0,0,1,1.8-12H134.7a12,12,0,0,1,12,10.32l2.21,16.25A3.13,3.13,0,0,1,148.2,94.53ZM89,80.55a3,3,0,0,1-3,3H74a3,3,0,1,1,0-6H86A3,3,0,0,1,89,80.55Z" fill="#0056ff"/></g></g></g></g></svg>