<?xml version="1.0" encoding="UTF-8"?>
<svg width="45px" height="45px" viewBox="0 0 45 45" version="1.1" xmlns="http://www.w3.org/2000/svg" xmlns:xlink="http://www.w3.org/1999/xlink">
    <!-- Generator: Sketch 53.2 (72643) - https://sketchapp.com -->
    <title>Budicon-Outline/Arrows/chevron-right-circle</title>
    <desc>Created with Sketch.</desc>
    <g id="Page-1" stroke="none" stroke-width="1" fill="none" fill-rule="evenodd">
        <g id="PWS---Home--Desktop-Copy" transform="translate(-1300.000000, -1370.000000)" fill="#0067C6" fill-rule="nonzero">
            <g id="Budicon-Outline/Arrows/chevron-right-circle" transform="translate(1300.000000, 1370.000000)">
                <path d="M22.5,0 C10.0735931,-7.6089797e-16 1.59872116e-15,10.0735931 0,22.5 C-1.59872116e-15,34.9264069 10.0735931,45 22.5,45 C34.9264069,45 45,34.9264069 45,22.5 C45,16.532629 42.6294711,10.8096659 38.4099026,6.59009742 C34.1903341,2.37052891 28.467371,3.65396091e-16 22.5,0 Z M22.5,43.2 C11.0677057,43.2 1.8,33.9322943 1.8,22.5 C1.8,11.0677057 11.0677057,1.8 22.5,1.8 C33.9322943,1.8 43.2,11.0677057 43.2,22.5 C43.1872034,33.9269896 33.9269896,43.1872034 22.5,43.2 Z M30.339,22.05162 C30.5061531,22.2184883 30.6000826,22.4449812 30.6000826,22.68117 C30.6000826,22.9173588 30.5061531,23.1438517 30.339,23.31072 L19.521,34.12026 C19.2970607,34.3499673 18.96689,34.4414935 18.6566461,34.3598664 C18.3464021,34.2782392 18.1040281,34.0360729 18.0221349,33.7258991 C17.9402418,33.4157253 18.0314848,33.0854762 18.261,32.86134 L28.449,22.68126 L18.261,12.50082 C18.0350164,12.2759566 17.9464535,11.9474564 18.0287827,11.6394726 C18.111112,11.3314888 18.3517762,11.0909965 18.6598187,11.0088873 C18.9678613,10.9267782 19.2962981,11.0155757 19.521,11.24172 L30.339,22.05162 Z" id="Shape"></path>
            </g>
        </g>
    </g>
</svg>