<?xml version="1.0" encoding="utf-8"?>
<!-- Generator: Adobe Illustrator 25.3.0, SVG Export Plug-In . SVG Version: 6.00 Build 0)  -->
<svg version="1.1" id="Logo" xmlns="http://www.w3.org/2000/svg" xmlns:xlink="http://www.w3.org/1999/xlink" x="0px" y="0px"
	 viewBox="0 0 627.8 109.3" style="enable-background:new 0 0 627.8 109.3;" xml:space="preserve">
<style type="text/css">
	.st0{fill:#FAFAFA;}
</style>
<g>
	<g>
		<g>
			<g>
				<path class="st0" d="M0,54.7c0-19.9,14.5-32.8,32.5-32.8C49,21.9,62.4,32,64.2,49H47.5c-1.6-9.2-8-12.7-15-12.7
					c-8.1,0-15.9,6.3-15.9,18.5s7.8,18.4,15.9,18.4c7,0,13.4-3.4,15-12.7h16.7c-1.8,17-15.2,27.1-31.7,27.1C14.5,87.5,0,74.6,0,54.7
					z"/>
				<path class="st0" d="M67.9,54.7c0-19.9,14.6-32.8,33.5-32.8s33.5,12.9,33.5,32.8s-14.6,32.8-33.5,32.8S67.9,74.6,67.9,54.7z
					 M118.2,54.7c0-12.2-7.9-18.5-16.8-18.5c-9,0-16.9,6.3-16.9,18.5s7.9,18.4,16.9,18.4C110.3,73.2,118.2,66.9,118.2,54.7z"/>
				<path class="st0" d="M137.3,69.7c0-12.7,7.6-18.1,28.2-20.7c10.3-1.4,12.9-2.1,12.9-6.4c0-4.5-3.9-7.4-10.5-7.4
					c-7.9,0-11.4,3.8-11.7,9.6H140c0.1-14.2,11.6-23,27.7-23c15.5,0,26.9,5.5,26.9,23.6v20.5c0,7.8,0.2,13,1.1,20h-15.9
					c-0.6-2.8-0.9-5.9-1-10.1c-3.3,6.3-10.6,11.6-21.3,11.6C145.1,87.5,137.3,80.8,137.3,69.7z M178.4,57.2c-3,1.2-7.3,2-12.7,2.7
					c-8.9,1.3-12,3.9-12,8.6c0,3.8,2.3,6.5,8.4,6.5C169.7,75,178.4,68.4,178.4,57.2z"/>
				<path class="st0" d="M198.8,65h16c1.1,7.1,5.5,9.4,12.7,9.4c6.5,0,10.1-2.2,10.1-5.9c0-4.3-3.1-5.9-13.3-7
					c-18.7-2.2-24.2-8.7-24.2-19.9c0-11.6,10.5-19.7,25.5-19.7c15.4,0,24.6,7,26.2,21.7h-15.9c-0.5-5.4-4.2-8.1-10.3-8.1
					c-5.8,0-9.5,2.1-9.5,5.9c0,4.1,3.4,5.4,12.7,6.9c19.8,3.2,24.9,9.7,24.9,20.1c0,9.8-8,19.3-26.1,19.3
					C207.7,87.5,199.8,78.9,198.8,65z"/>
				<path class="st0" d="M264.2,62.9V37.4h-10V23.3h10V6.5h16.2v16.9h17.5v14.2h-17.5v23.6c0,10,3.9,11.8,9.1,11.8
					c3.2,0,5.8-0.5,8.7-1.6V86c-3.3,0.9-6.4,1.6-11.8,1.6C271.7,87.5,264.2,81.5,264.2,62.9z"/>
				<path class="st0" d="M300.7,54.7c0-20.1,13.4-32.8,31.1-32.8c16.1,0,28.2,9.8,30.3,26.1h-10.2c-1.8-11.3-9.7-17.1-20-17.1
					c-11.8,0-20.9,8.6-20.9,23.9s9.1,23.9,20.9,23.9c10.3,0,18.2-5.8,20-17.1h10.2C360,77.8,348,87.7,331.8,87.7
					C314.2,87.5,300.7,74.7,300.7,54.7z"/>
				<path class="st0" d="M364.8,70.1c0-11.8,7.1-17.3,26.9-19.8c14.1-1.7,17.2-3.3,17.2-9c0-7-6-10.7-15.1-10.7
					c-9.7,0-15.4,4.6-16.5,13.3h-9.8c1-13.4,11.1-22,26.3-22c15.1,0,25,5.8,25,20.7v26.6c0,6.2,0.4,11.7,1,17h-9.6
					c-0.6-3.4-1-7.1-1.1-13.9c-2.8,7-11.2,15.4-24.5,15.4C372.6,87.5,364.8,81,364.8,70.1z M409,53.2c-3.7,2.3-9,3.4-17,4.4
					c-12.3,1.5-17.2,4.9-17.2,11.8c0,6.3,4.2,10,11.7,10C398.2,79.4,409,70.3,409,53.2z"/>
				<path class="st0" d="M427.1,23.3h9.8v10.1c4.7-7.3,12.9-11.6,23-11.6c16.8,0,29.8,12.8,29.8,32.8s-12.9,32.8-29.8,32.8
					c-10.1,0-18.3-4.2-23-11.3v33.2h-9.8V23.3z M479.6,54.7c0-15.2-9.4-23.9-21.5-23.9s-21.4,8.6-21.4,23.9s9.3,23.9,21.4,23.9
					S479.6,70,479.6,54.7z"/>
				<path class="st0" d="M493.2,7.5c0-4.1,3.1-7.1,7.1-7.1c4.1,0,7.3,3.1,7.3,7.1c0,3.9-3.2,7.1-7.3,7.1
					C496.3,14.6,493.2,11.4,493.2,7.5z M495.4,23.3h9.8V86h-9.8V23.3z"/>
				<path class="st0" d="M520.9,64.3V32.2h-11.6v-8.9h11.6V6.5h10v16.9h20.8v8.9h-20.8v31.4c0,11.8,4.4,14.9,11.3,14.9
					c3.6,0,6.9-0.6,10.6-2.2v9.2c-3.2,1.1-6.9,2.1-11.7,2.1C527.2,87.5,520.9,81,520.9,64.3z"/>
				<path class="st0" d="M555.2,70.1c0-11.8,7.1-17.3,26.9-19.8c14.1-1.7,17.2-3.3,17.2-9c0-7-6-10.7-15.1-10.7
					c-9.7,0-15.4,4.6-16.5,13.3h-9.8c1-13.4,11.1-22,26.3-22c15.1,0,25,5.8,25,20.7v26.6c0,6.2,0.4,11.7,1,17h-9.6
					c-0.6-3.4-1-7.1-1.1-13.9c-2.8,7-11.2,15.4-24.5,15.4C563,87.5,555.2,81,555.2,70.1z M599.4,53.2c-3.7,2.3-9,3.4-17,4.4
					c-12.3,1.5-17.2,4.9-17.2,11.8c0,6.3,4.2,10,11.7,10C588.5,79.4,599.4,70.3,599.4,53.2z"/>
				<path class="st0" d="M617.7,0h10.1v86.1h-10.1V0z"/>
			</g>
		</g>
	</g>
</g>
</svg>
