<svg id="Layer_1" data-name="Layer 1" xmlns="http://www.w3.org/2000/svg" width="160" height="150" viewBox="0 0 160 150"><g id="Layer_2" data-name="Layer 2"><g id="Budicon_2.0.1" data-name="Budicon 2.0.1"><g id="Tech"><g id="budicon-laptop"><path d="M153.6,114V27.6A9.6,9.6,0,0,0,144,18H16a9.6,9.6,0,0,0-9.6,9.6V114H0v9.6a16,16,0,0,0,16,16H144a16,16,0,0,0,16-16V114ZM12.8,27.6A3.2,3.2,0,0,1,16,24.4H144a3.2,3.2,0,0,1,3.2,3.2V114H12.8Zm140.8,96a9.6,9.6,0,0,1-9.6,9.6H16a9.6,9.6,0,0,1-9.6-9.6v-3.2H64v6.4H96v-6.4h57.6Z" fill="#0056ff"/></g></g><g id="Interface"><g id="budicon-lock"><path d="M80,71.25a4.56,4.56,0,0,0-3.07,8.06L75.33,83a.89.89,0,0,0,.51,1.16.82.82,0,0,0,.38.06h7.56A.89.89,0,0,0,84.67,83L83.2,79.5a4.67,4.67,0,0,0-3.07-8.25Zm2.43,11.33H77.57l1.53-3.65-1-.83a2.89,2.89,0,0,1-.83-3,2.62,2.62,0,0,1,1.86-1.79,1.94,1.94,0,0,1,.83,0,2.81,2.81,0,0,1,2.82,2.81,2.78,2.78,0,0,1-1,2.11l-1,.84ZM93.18,63.76H90.37V55.25a10.37,10.37,0,0,0-20.74,0v8.51H66.82A2.82,2.82,0,0,0,64,66.58V89.17A2.81,2.81,0,0,0,66.82,92H93.18A2.81,2.81,0,0,0,96,89.17V66.58a2.82,2.82,0,0,0-2.82-2.82ZM71.55,55.25a8.45,8.45,0,0,1,16.9,0v8.51H71.55ZM94.14,89.17a1,1,0,0,1-1,1H66.82a1,1,0,0,1-1-1V66.58a1,1,0,0,1,1-1H93.18a1,1,0,0,1,1,1Z" fill="#0056ff"/></g></g></g></g></svg>