<svg xmlns="http://www.w3.org/2000/svg" width="40" height="33.6" viewBox="0 0 40 33.6"><g id="Layer_2" data-name="Layer 2"><g id="Layer_1-2" data-name="Layer 1"><g id="Layer_2-2" data-name="Layer 2"><g id="Budicon_2.0.1" data-name="Budicon 2.0.1"><g id="Finance"><g id="budicon-web-banking"><path d="M25.6,7.2a.8.8,0,0,0,.8.8h3.2a2.4,2.4,0,0,1,0,4.8h-.8v.8a.8.8,0,1,1-1.6,0v-.8H24.8a.8.8,0,1,1,0-1.6h4.8a.8.8,0,1,0,0-1.6H26.4a2.4,2.4,0,1,1,0-4.8h.8V4a.8.8,0,1,1,1.6,0v.8h2.4a.8.8,0,1,1,0,1.6H26.4A.8.8,0,0,0,25.6,7.2ZM40,2.4V15.2a2.39,2.39,0,0,1-2.4,2.4h-4v9.6h1.6v2.4a4,4,0,0,1-4,4H4a4,4,0,0,1-4-4V27.2H1.6V7.2A2.39,2.39,0,0,1,4,4.8H16V2.4A2.39,2.39,0,0,1,18.4,0H37.6A2.39,2.39,0,0,1,40,2.4ZM3.2,27.2H32V17.6H18.4A2.39,2.39,0,0,1,16,15.2V6.4H4a.8.8,0,0,0-.8.8Zm30.4,1.6H20.8v1.6H14.4V28.8H1.6v.8A2.39,2.39,0,0,0,4,32H31.2a2.39,2.39,0,0,0,2.4-2.4ZM38.4,2.4a.8.8,0,0,0-.8-.8H18.4a.8.8,0,0,0-.8.8V15.2a.8.8,0,0,0,.8.8H37.6a.8.8,0,0,0,.8-.8Z" fill="#0056ff"/></g></g></g></g></g></g></svg>