<svg xmlns="http://www.w3.org/2000/svg" width="40" height="40" viewBox="0 0 40 40"><g id="Layer_2" data-name="Layer 2"><g id="Layer_1-2" data-name="Layer 1"><g id="Layer_2-2" data-name="Layer 2"><g id="Budicon_2.0.1" data-name="Budicon 2.0.1"><g id="Interface"><g id="budicon-life-buoy"><path d="M20,0A20,20,0,1,0,40,20,20,20,0,0,0,20,0Zm4,12.16V2.05A18.42,18.42,0,0,1,38,16H27.84A8.9,8.9,0,0,0,24,12.16ZM27.2,20A7.2,7.2,0,1,1,20,12.8,7.2,7.2,0,0,1,27.2,20ZM17.6,1.78a16.09,16.09,0,0,1,4.8,0v9.76a8.7,8.7,0,0,0-4.8,0ZM16,2.05V12.16h0A8.9,8.9,0,0,0,12.16,16H2.05A18.42,18.42,0,0,1,16,2.05ZM1.6,20a16.06,16.06,0,0,1,.18-2.4h9.76a8.7,8.7,0,0,0,0,4.8H1.78A16.06,16.06,0,0,1,1.6,20ZM16,27.84V38A18.42,18.42,0,0,1,2.05,24H12.16A8.9,8.9,0,0,0,16,27.84Zm6.4,10.38a16.09,16.09,0,0,1-4.8,0V28.46a8.7,8.7,0,0,0,4.8,0ZM24,38V27.84h0A8.9,8.9,0,0,0,27.84,24H38A18.42,18.42,0,0,1,24,38ZM28.46,22.4a8.7,8.7,0,0,0,0-4.8h9.76a16.09,16.09,0,0,1,0,4.8Z" fill="#0056ff"/></g></g></g></g></g></g></svg>