<svg id="Layer_1" data-name="Layer 1" xmlns="http://www.w3.org/2000/svg" width="160" height="150" viewBox="0 0 160 150"><g id="Layer_2" data-name="Layer 2"><g id="Budicon_2.0.1" data-name="Budicon 2.0.1"><g id="Building"><g id="budicon-house-a"><path d="M158.89,72.62,82.09,2.23a3.33,3.33,0,0,0-4.35,0L1,72.62a3.2,3.2,0,0,0,0,4.53H1a3.25,3.25,0,0,0,4.54,0L19.12,64.69V139a9.6,9.6,0,0,0,9.6,9.6H131.11a9.6,9.6,0,0,0,9.6-9.6V64.69l13.83,12.79a3.26,3.26,0,0,0,4.51-4.71Zm-43.78,69.56H89.52V97.39h25.59ZM134.31,59v80a3.2,3.2,0,0,1-3.2,3.2h-9.6V97.39a6.39,6.39,0,0,0-6.4-6.4H89.52a6.39,6.39,0,0,0-6.4,6.4v44.79H28.72a3.2,3.2,0,0,1-3.2-3.2V59h0L79.92,9Zm-64,35.2a3.21,3.21,0,0,1-3.2,3.2H41.52a3.2,3.2,0,1,1,0-6.4h25.6A3.2,3.2,0,0,1,70.32,94.19Zm0,19.2a3.21,3.21,0,0,1-3.2,3.2H41.52a3.2,3.2,0,0,1,0-6.4h25.6A3.2,3.2,0,0,1,70.32,113.39Zm-6.4-64a16,16,0,1,0,16-16A16,16,0,0,0,63.92,49.39Zm16-9.6a9.6,9.6,0,1,1-9.6,9.6A9.6,9.6,0,0,1,79.92,39.79Z" fill="#0056ff"/></g></g></g></g></svg>