<svg id="Layer_1" data-name="Layer 1" xmlns="http://www.w3.org/2000/svg" width="160" height="150" viewBox="0 0 160 150"><g id="Layer_2" data-name="Layer 2"><g id="Budicon_2.0.1" data-name="Budicon 2.0.1"><g id="Finance"><g id="budicon-cash-dollar"><path d="M140.8,33.4H6.4A6.41,6.41,0,0,0,0,39.8V123a6.41,6.41,0,0,0,6.4,6.4H140.8a6.41,6.41,0,0,0,6.4-6.4V39.8A6.41,6.41,0,0,0,140.8,33.4Zm0,89.6H6.4V39.8H140.8ZM160,33.4v80a3.2,3.2,0,1,1-6.4,0v-80a6.41,6.41,0,0,0-6.4-6.4H16a3.2,3.2,0,1,1,0-6.4H147.2A12.8,12.8,0,0,1,160,33.4Zm-76.8,64V84.6H64a6.41,6.41,0,0,1-6.4-6.4V65.4A6.41,6.41,0,0,1,64,59h6.4V55.8a3.2,3.2,0,0,1,6.4,0V59h9.6a3.2,3.2,0,0,1,0,6.4H64V78.2H83.2a6.41,6.41,0,0,1,6.4,6.4V97.4a6.41,6.41,0,0,1-6.4,6.4H76.8V107a3.2,3.2,0,0,1-6.4,0v-3.2H60.8a3.2,3.2,0,0,1,0-6.4Z" fill="#0056ff"/></g></g></g></g></svg>