<svg xmlns="http://www.w3.org/2000/svg" width="17" height="25" viewBox="0 0 17 25"><g id="Layer_2" data-name="Layer 2"><g id="Layer_1-2" data-name="Layer 1"><g id="Layer_2-2" data-name="Layer 2"><g id="Budicon_2.0.1" data-name="Budicon 2.0.1"><g id="Travel"><g id="budicon-location-pin"><path d="M8.5,0A8.52,8.52,0,0,0,0,8.5c0,5,5,12.9,7.32,15.92a1.49,1.49,0,0,0,2.09.27,1.72,1.72,0,0,0,.27-.27C12,21.41,17,13.51,17,8.5A8.52,8.52,0,0,0,8.5,0Zm.39,23.81a.5.5,0,0,1-.7.08l-.08-.08C5.79,20.81,1,13.12,1,8.5a7.5,7.5,0,0,1,15,0C16,13.14,11.21,20.82,8.89,23.81ZM8.5,4A3.5,3.5,0,1,0,12,7.5,3.5,3.5,0,0,0,8.5,4Zm0,6A2.5,2.5,0,1,1,11,7.5,2.5,2.5,0,0,1,8.5,10Z" fill="#0056ff"/></g></g></g></g></g></g></svg>