<svg id="Layer_1" data-name="Layer 1" xmlns="http://www.w3.org/2000/svg" width="160" height="150" viewBox="0 0 160 150"><g id="Layer_2" data-name="Layer 2"><g id="Budicon_2.0.1" data-name="Budicon 2.0.1"><g id="Finance"><g id="budicon-savings"><path d="M154.88,57.8l-11.33-2.31a59.55,59.55,0,0,0-5.82-11.13L140.8,7.63s-24.7,2.49-36.47,11.26A72.22,72.22,0,0,0,91.91,15.5a28.67,28.67,0,0,0-52.73,8.13A64.92,64.92,0,0,0,13.26,49.22L5,43.34a3.26,3.26,0,0,0-4.48.89,3.26,3.26,0,0,0,.9,4.48l9.08,6A53.3,53.3,0,0,0,6.42,74.82a56.94,56.94,0,0,0,20.35,42.75v18a12.8,12.8,0,0,0,12.8,12.8h4.09a12.79,12.79,0,0,0,13-12.62,12.55,12.55,0,0,0-.17-2.29v-.58a80.39,80.39,0,0,0,42.43,0v.9a12.8,12.8,0,0,0,10.51,14.74,13.39,13.39,0,0,0,2.28.17h3.52a12.8,12.8,0,0,0,12.8-12.8V116.41a58.69,58.69,0,0,0,17.73-29.18l9.15-1.85A6.4,6.4,0,0,0,160,79V64.07A6.4,6.4,0,0,0,154.88,57.8ZM133.76,15.12,132,35.59l-4-2.36a70.31,70.31,0,0,0-16.76-11.4A84.84,84.84,0,0,1,133.76,15.12ZM67.21,7.63A22.4,22.4,0,0,1,89.61,30a19,19,0,0,1,0,3.2H44.81a19,19,0,0,1,0-3.2A22.4,22.4,0,0,1,67.21,7.63ZM48.52,139.77A6.39,6.39,0,0,1,43.66,142H39.57a6.39,6.39,0,0,1-6.4-6.4v-12.8a75.11,75.11,0,0,0,16.19,8.32l.64,3.78A6.37,6.37,0,0,1,48.52,139.77Zm73.08-4.16a6.39,6.39,0,0,1-6.4,6.4h-4.09a6.39,6.39,0,0,1-6.48-6.31,5.81,5.81,0,0,1,.08-1.11l.77-4.29a74,74,0,0,0,16.12-8.57Zm-44.79-6.4c-35.26,0-64-24.38-64-54.39A52,52,0,0,1,38.41,31.43a28.66,28.66,0,0,0,1.8,8.19h54A28.06,28.06,0,0,0,96,30a30,30,0,0,0-1-7.24c26.62,6.66,45.82,27.39,45.82,52C140.8,104.83,112.07,129.21,76.81,129.21ZM147.2,80.52a54.19,54.19,0,0,0,0-5.7,53,53,0,0,0-1.54-12.35l7.94,1.6v15.1Zm-25.6-24.9a3.2,3.2,0,1,1-3.2-3.2A3.2,3.2,0,0,1,121.6,55.62Z" fill="#0056ff"/></g></g></g></g></svg>