<svg xmlns="http://www.w3.org/2000/svg" width="40" height="40" viewBox="0 0 40 40"><g id="Layer_2" data-name="Layer 2"><g id="Layer_1-2" data-name="Layer 1"><g id="Layer_2-2" data-name="Layer 2"><g id="Budicon_2.0.1" data-name="Budicon 2.0.1"><g id="Communication"><g id="budicon-call"><path d="M39.22,30.68l-5-5a2.59,2.59,0,0,0-1.87-.79,2.63,2.63,0,0,0-1.87.79l-2.15,2.12a1.75,1.75,0,0,1-1.24.52,1.78,1.78,0,0,1-.92-.26A48.28,48.28,0,0,1,18,22a49.21,49.21,0,0,1-6.14-8.14,1.76,1.76,0,0,1,.28-2.16L14.3,9.5a2.63,2.63,0,0,0,0-3.72l0,0-5-5A2.65,2.65,0,0,0,7.44,0,2.6,2.6,0,0,0,5.58.78l-3,3A8.8,8.8,0,0,0,1.55,15a110,110,0,0,0,10.26,13.2A110,110,0,0,0,25,38.45a8.8,8.8,0,0,0,11.22-1l3-3a2.62,2.62,0,0,0,0-3.71ZM38,33.2l-3,3a6.94,6.94,0,0,1-5,2.07A7.12,7.12,0,0,1,26,37,107.81,107.81,0,0,1,13,27,107.81,107.81,0,0,1,3,14a7.12,7.12,0,0,1,.84-9l3-3A.92.92,0,0,1,8.09,2l5,5a.92.92,0,0,1,0,1.27l-2.16,2.21a3.48,3.48,0,0,0-.49,4.29,48.78,48.78,0,0,0,6.4,8.45,49.43,49.43,0,0,0,8.44,6.39,3.49,3.49,0,0,0,4.3-.49l2.15-2.16a.92.92,0,0,1,.63-.26,1,1,0,0,1,.64.26l5,5A.92.92,0,0,1,38,33.2Z" fill="#0056ff"/></g></g></g></g></g></g></svg>