<svg id="Layer_1" data-name="Layer 1" xmlns="http://www.w3.org/2000/svg" width="160" height="150" viewBox="0 0 160 150"><g id="Layer_2" data-name="Layer 2"><g id="Budicon_2.0.1" data-name="Budicon 2.0.1"><g id="eCommerce"><path d="M80,0a75,75,0,1,0,75,75A75,75,0,0,0,80,0Zm0,144a69,69,0,1,1,69-69A69,69,0,0,1,80,144Z" fill="#0056ff"/><path d="M60.2,68.4a13.2,13.2,0,1,0,0-26.4h0a13.2,13.2,0,1,0,0,26.4Zm0-19.8a6.6,6.6,0,1,1-6.6,6.6h0A6.59,6.59,0,0,1,60.2,48.6Zm39.6,33A13.2,13.2,0,1,0,113,94.8,13.2,13.2,0,0,0,99.8,81.6Zm0,19.8a6.6,6.6,0,1,1,6.6-6.6A6.59,6.59,0,0,1,99.8,101.4Zm-46.2,2.28L106.4,42l5,4.32L58.64,108Z" fill="#0056ff"/></g></g></g></svg>