<svg width="240" height="30" viewBox="0 0 240 30" fill="none" xmlns="http://www.w3.org/2000/svg">
<g id="coastcompanion-logo 1" clip-path="url(#clip0_8_198)">
<path id="Vector" d="M0 14.474C0 9.054 4.0142 5.54054 8.99736 5.54054C13.5652 5.54054 17.2749 8.2914 17.7732 12.9216H13.15C12.707 10.4158 10.9353 9.46256 8.99736 9.46256C6.75492 9.46256 4.59558 11.1784 4.59558 14.5013C4.59558 17.8241 6.75492 19.5127 8.99736 19.5127C10.9353 19.5127 12.707 18.5867 13.15 16.0537H17.7732C17.2749 20.6839 13.5652 23.4347 8.99736 23.4347C4.0142 23.4075 0 19.894 0 14.474Z" fill="#FAFAFA"/>
<path id="Vector_2" d="M18.7975 14.474C18.7975 9.054 22.8394 5.54054 28.0718 5.54054C33.3041 5.54054 37.346 9.054 37.346 14.474C37.346 19.894 33.3041 23.4075 28.0718 23.4075C22.8394 23.4075 18.7975 19.894 18.7975 14.474ZM32.7226 14.474C32.7226 11.1512 30.5357 9.43533 28.0718 9.43533C25.5801 9.43533 23.3932 11.1512 23.3932 14.474C23.3932 17.7969 25.5801 19.4855 28.0718 19.4855C30.5357 19.5127 32.7226 17.7969 32.7226 14.474Z" fill="#FAFAFA"/>
<path id="Vector_3" d="M38.0103 18.5595C38.0103 15.1005 40.1144 13.6297 45.8173 12.9216C48.6688 12.5403 49.3885 12.3496 49.3885 11.1784C49.3885 9.95281 48.3088 9.16295 46.4816 9.16295C44.2947 9.16295 43.3256 10.1979 43.2426 11.7776H38.7579C38.7855 7.91008 41.9691 5.51329 46.4264 5.51329C50.7174 5.51329 53.8734 7.01128 53.8734 11.941V17.5245C53.8734 19.6489 53.9286 21.0652 54.178 22.9718H49.7761C49.61 22.2091 49.527 21.3648 49.4992 20.2209C48.5857 21.9368 46.5647 23.3802 43.6026 23.3802C40.1698 23.4075 38.0103 21.5827 38.0103 18.5595ZM49.3885 15.1549C48.5581 15.4818 47.3675 15.6996 45.8727 15.8903C43.4086 16.2444 42.5506 16.9525 42.5506 18.2326C42.5506 19.2676 43.1874 20.003 44.876 20.003C46.9801 20.003 49.3885 18.2054 49.3885 15.1549Z" fill="#FAFAFA"/>
<path id="Vector_4" d="M55.036 17.2794H59.4655C59.77 19.2131 60.9883 19.8396 62.9815 19.8396C64.781 19.8396 65.7775 19.2404 65.7775 18.2326C65.7775 17.0615 64.9193 16.6257 62.0957 16.3261C56.9186 15.7269 55.396 13.9565 55.396 10.9061C55.396 7.74667 58.3029 5.54054 62.4554 5.54054C66.7188 5.54054 69.2657 7.44707 69.7088 11.4508H65.3069C65.1684 9.98004 64.1441 9.24467 62.4554 9.24467C60.8498 9.24467 59.8255 9.81663 59.8255 10.8516C59.8255 11.9683 60.7668 12.3224 63.3413 12.7309C68.8229 13.6025 70.2346 15.3728 70.2346 18.2054C70.2346 20.8746 68.0199 23.4619 63.0091 23.4619C57.5001 23.4075 55.313 21.0652 55.036 17.2794Z" fill="#FAFAFA"/>
<path id="Vector_5" d="M73.1415 16.7074V9.76215H70.3731V5.92185H73.1415V1.34616H77.6264V5.94908H82.4711V9.81664H77.6264V16.2444C77.6264 18.968 78.706 19.4583 80.1457 19.4583C81.0316 19.4583 81.7514 19.3221 82.5542 19.0225V22.999C81.6407 23.2441 80.7825 23.4347 79.2875 23.4347C75.2178 23.4075 73.1415 21.7733 73.1415 16.7074Z" fill="#FAFAFA"/>
<path id="Vector_6" d="M91.9789 23.44C90.3509 23.44 88.8812 23.0719 87.5696 22.3358C86.2807 21.5996 85.2631 20.5623 84.5169 19.2238C83.7707 17.8631 83.3976 16.2904 83.3976 14.5058C83.3976 12.7212 83.7707 11.1596 84.5169 9.82115C85.2631 8.46037 86.2807 7.41192 87.5696 6.67576C88.8812 5.93961 90.3509 5.57153 91.9789 5.57153C94.2175 5.57153 96.0943 6.2073 97.6093 7.47884C99.1244 8.75038 100.029 10.4792 100.323 12.6654H97.5076C97.2589 11.1708 96.6369 10.0219 95.6421 9.21884C94.6697 8.41576 93.4486 8.01423 91.9789 8.01423C90.8936 8.01423 89.9099 8.27077 89.0281 8.78384C88.1462 9.29691 87.4566 10.0442 86.959 11.0258C86.4615 12.0073 86.2128 13.1673 86.2128 14.5058C86.2128 15.8442 86.4615 17.0042 86.959 17.9858C87.4566 18.9673 88.1462 19.7146 89.0281 20.2277C89.9099 20.7408 90.8936 20.9973 91.9789 20.9973C93.4486 20.9973 94.6697 20.5958 95.6421 19.7927C96.6369 18.9896 97.2589 17.8408 97.5076 16.3461H100.323C100.029 18.5323 99.1244 20.2611 97.6093 21.5327C96.0943 22.8042 94.2175 23.44 91.9789 23.44Z" fill="#FAFAFA"/>
<path id="Vector_7" d="M110.123 23.44C108.45 23.44 106.935 23.0719 105.578 22.3358C104.221 21.5996 103.159 20.5623 102.39 19.2238C101.621 17.8631 101.237 16.2904 101.237 14.5058C101.237 12.7212 101.621 11.1596 102.39 9.82115C103.159 8.46037 104.221 7.41192 105.578 6.67576C106.935 5.93961 108.45 5.57153 110.123 5.57153C111.796 5.57153 113.311 5.93961 114.668 6.67576C116.025 7.41192 117.088 8.46037 117.856 9.82115C118.625 11.1596 119.01 12.7212 119.01 14.5058C119.01 16.2904 118.625 17.8631 117.856 19.2238C117.088 20.5623 116.025 21.5996 114.668 22.3358C113.311 23.0719 111.796 23.44 110.123 23.44ZM110.123 20.9973C111.276 20.9973 112.305 20.7408 113.21 20.2277C114.137 19.7146 114.86 18.9673 115.38 17.9858C115.923 17.0042 116.194 15.8442 116.194 14.5058C116.194 13.1673 115.923 12.0073 115.38 11.0258C114.86 10.0442 114.137 9.29691 113.21 8.78384C112.305 8.27077 111.276 8.01423 110.123 8.01423C108.97 8.01423 107.93 8.27077 107.003 8.78384C106.098 9.29691 105.375 10.0442 104.832 11.0258C104.312 12.0073 104.052 13.1673 104.052 14.5058C104.052 15.8442 104.312 17.0042 104.832 17.9858C105.375 18.9673 106.098 19.7146 107.003 20.2277C107.93 20.7408 108.97 20.9973 110.123 20.9973Z" fill="#FAFAFA"/>
<path id="Vector_8" d="M121.189 5.97307H123.902V8.61653C124.491 7.59037 125.271 6.83193 126.243 6.34115C127.215 5.82808 128.244 5.57153 129.329 5.57153C131.975 5.57153 133.739 6.67576 134.621 8.88423C136 6.67576 137.945 5.57153 140.455 5.57153C142.444 5.57153 143.96 6.14038 145 7.27807C146.062 8.41576 146.594 10.1558 146.594 12.4981V23.0385H143.846V13.1004C143.846 9.70962 142.535 8.01423 139.912 8.01423C138.646 8.01423 137.549 8.505 136.622 9.48653C135.717 10.4458 135.265 12.0073 135.265 14.1711V23.0385H132.518V13.1004C132.518 9.70962 131.206 8.01423 128.583 8.01423C127.317 8.01423 126.22 8.505 125.293 9.48653C124.366 10.4458 123.902 12.0073 123.902 14.1711V23.0385H121.189V5.97307Z" fill="#FAFAFA"/>
<path id="Vector_9" d="M149.76 5.97307H152.473V8.71692C153.129 7.71307 154 6.94346 155.085 6.40807C156.193 5.85037 157.437 5.57153 158.816 5.57153C160.354 5.57153 161.744 5.93961 162.988 6.67576C164.254 7.41192 165.238 8.46037 165.939 9.82115C166.662 11.1596 167.024 12.7212 167.024 14.5058C167.024 16.2904 166.662 17.8631 165.939 19.2238C165.238 20.5623 164.254 21.5996 162.988 22.3358C161.744 23.0719 160.354 23.44 158.816 23.44C157.437 23.44 156.193 23.1723 155.085 22.6369C154 22.1015 153.129 21.3431 152.473 20.3615V29.3962H149.76V5.97307ZM158.307 20.9973C159.438 20.9973 160.444 20.7408 161.326 20.2277C162.23 19.7146 162.943 18.9673 163.463 17.9858C163.983 17.0042 164.243 15.8442 164.243 14.5058C164.243 13.1673 163.983 12.0073 163.463 11.0258C162.943 10.0442 162.23 9.29691 161.326 8.78384C160.444 8.27077 159.438 8.01423 158.307 8.01423C157.199 8.01423 156.193 8.27077 155.288 8.78384C154.384 9.29691 153.672 10.0442 153.152 11.0258C152.654 12.0073 152.405 13.1673 152.405 14.5058C152.405 15.8442 152.654 17.0042 153.152 17.9858C153.672 18.9673 154.384 19.7146 155.288 20.2277C156.193 20.7408 157.199 20.9973 158.307 20.9973Z" fill="#FAFAFA"/>
<path id="Vector_10" d="M173.462 23.44C171.788 23.44 170.454 23.0161 169.459 22.1685C168.487 21.3208 168.001 20.1608 168.001 18.6885C168.001 17.5954 168.238 16.7031 168.713 16.0115C169.21 15.2977 169.99 14.7288 171.053 14.305C172.139 13.8588 173.597 13.5242 175.429 13.3011C176.763 13.145 177.758 12.9777 178.414 12.7992C179.092 12.6208 179.555 12.3865 179.804 12.0965C180.053 11.8065 180.177 11.3938 180.177 10.8585C180.177 9.92153 179.804 9.20769 179.058 8.71692C178.312 8.20385 177.294 7.9473 176.005 7.9473C174.671 7.9473 173.62 8.2596 172.851 8.88423C172.082 9.48653 171.618 10.3788 171.46 11.5611H168.747C168.883 9.73191 169.595 8.28192 170.884 7.21115C172.195 6.11806 173.902 5.57153 176.005 5.57153C180.596 5.57153 182.891 7.44538 182.891 11.1931V18.4208C182.891 19.96 182.981 21.4992 183.162 23.0385H180.516C180.335 22.0792 180.234 20.8188 180.211 19.2573C179.759 20.3504 178.934 21.3208 177.735 22.1685C176.559 23.0161 175.135 23.44 173.462 23.44ZM173.97 21.2315C175.078 21.2315 176.096 20.9527 177.023 20.395C177.973 19.8373 178.73 19.0231 179.295 17.9523C179.883 16.8815 180.177 15.5988 180.177 14.1042C179.702 14.4165 179.092 14.6619 178.346 14.8404C177.622 15.0188 176.672 15.175 175.497 15.3088C173.801 15.5096 172.58 15.8665 171.833 16.3796C171.11 16.8704 170.748 17.5842 170.748 18.5211C170.748 19.3688 171.019 20.0381 171.562 20.5288C172.127 20.9973 172.93 21.2315 173.97 21.2315Z" fill="#FAFAFA"/>
<path id="Vector_11" d="M185.049 5.97307H187.763V8.61653C188.373 7.59037 189.176 6.83193 190.171 6.34115C191.188 5.82808 192.33 5.57153 193.596 5.57153C195.654 5.57153 197.237 6.17384 198.345 7.37846C199.453 8.56076 200.007 10.3788 200.007 12.8327V23.0385H197.294V13.5019C197.294 11.5835 196.932 10.1892 196.208 9.31923C195.485 8.44923 194.377 8.01423 192.884 8.01423C191.392 8.01423 190.16 8.51615 189.187 9.51999C188.237 10.5238 187.763 12.1969 187.763 14.5392V23.0385H185.049V5.97307Z" fill="#FAFAFA"/>
<path id="Vector_12" d="M203.525 3.59731C202.96 3.59731 202.485 3.40769 202.101 3.02847C201.739 2.64924 201.558 2.19193 201.558 1.65654C201.558 1.09885 201.739 0.641543 202.101 0.284622C202.485 -0.0946107 202.96 -0.284225 203.525 -0.284225C204.091 -0.284225 204.565 -0.0946107 204.95 0.284622C205.334 0.641543 205.527 1.09885 205.527 1.65654C205.527 2.19193 205.334 2.64924 204.95 3.02847C204.565 3.40769 204.091 3.59731 203.525 3.59731ZM202.169 5.97308H204.882V23.0385H202.169V5.97308Z" fill="#FAFAFA"/>
<path id="Vector_13" d="M214.931 23.44C213.258 23.44 211.743 23.0719 210.386 22.3358C209.03 21.5996 207.967 20.5623 207.198 19.2238C206.429 17.8631 206.045 16.2904 206.045 14.5058C206.045 12.7212 206.429 11.1596 207.198 9.82115C207.967 8.46037 209.03 7.41192 210.386 6.67576C211.743 5.93961 213.258 5.57153 214.931 5.57153C216.605 5.57153 218.12 5.93961 219.477 6.67576C220.833 7.41192 221.896 8.46037 222.665 9.82115C223.433 11.1596 223.818 12.7212 223.818 14.5058C223.818 16.2904 223.433 17.8631 222.665 19.2238C221.896 20.5623 220.833 21.5996 219.477 22.3358C218.12 23.0719 216.605 23.44 214.931 23.44ZM214.931 20.9973C216.085 20.9973 217.113 20.7408 218.018 20.2277C218.945 19.7146 219.669 18.9673 220.189 17.9858C220.731 17.0042 221.003 15.8442 221.003 14.5058C221.003 13.1673 220.731 12.0073 220.189 11.0258C219.669 10.0442 218.945 9.29691 218.018 8.78384C217.113 8.27077 216.085 8.01423 214.931 8.01423C213.778 8.01423 212.738 8.27077 211.811 8.78384C210.906 9.29691 210.183 10.0442 209.64 11.0258C209.12 12.0073 208.86 13.1673 208.86 14.5058C208.86 15.8442 209.12 17.0042 209.64 17.9858C210.183 18.9673 210.906 19.7146 211.811 20.2277C212.738 20.7408 213.778 20.9973 214.931 20.9973Z" fill="#FAFAFA"/>
<path id="Vector_14" d="M224.98 5.97307H227.693V8.61653C228.304 7.59037 229.107 6.83193 230.102 6.34115C231.119 5.82808 232.261 5.57153 233.527 5.57153C235.586 5.57153 237.167 6.17384 238.276 7.37846C239.385 8.56076 239.937 10.3788 239.937 12.8327V23.0385H237.223V13.5019C237.223 11.5835 236.863 10.1892 236.138 9.31923C235.415 8.44923 234.306 8.01423 232.815 8.01423C231.323 8.01423 230.09 8.51615 229.118 9.51999C228.168 10.5238 227.693 12.1969 227.693 14.5392V23.0385H224.98V5.97307Z" fill="#FAFAFA"/>
</g>
<defs>
<clipPath id="clip0_8_198">
<rect width="240" height="30" fill="white" transform="translate(0 -0.5)"/>
</clipPath>
</defs>
</svg>
